<svg xmlns="http://www.w3.org/2000/svg" viewBox="0 0 960 640" role="img" aria-labelledby="title desc">
  <title id="title">Firelight Vessels</title>
  <desc id="desc">Warm-toned wood fired vessels lit by kiln glow.</desc>
  <defs>
    <linearGradient id="bg" x1="0" y1="0" x2="1" y2="1">
      <stop offset="0%" stop-color="#3d2b28" />
      <stop offset="48%" stop-color="#744c3a" />
      <stop offset="100%" stop-color="#d39565" />
    </linearGradient>
    <linearGradient id="potA" x1="0" y1="0" x2="0" y2="1">
      <stop offset="0%" stop-color="#b67b57" />
      <stop offset="100%" stop-color="#6f4a3a" />
    </linearGradient>
  </defs>
  <rect width="960" height="640" fill="url(#bg)" />
  <rect x="0" y="510" width="960" height="130" fill="#2a1b1a" opacity="0.45" />
  <ellipse cx="250" cy="510" rx="132" ry="24" fill="#201413" opacity="0.5" />
  <ellipse cx="470" cy="516" rx="158" ry="28" fill="#201413" opacity="0.5" />
  <ellipse cx="718" cy="508" rx="122" ry="22" fill="#201413" opacity="0.5" />
  <path d="M164 285c0-52 38-84 86-84s86 32 86 84v145c0 51-38 84-86 84s-86-33-86-84z" fill="url(#potA)" />
  <path d="M154 287h192" stroke="#cf9d76" stroke-width="9" opacity="0.6" />
  <path d="M364 224h212v292H364z" fill="url(#potA)" />
  <ellipse cx="470" cy="224" rx="106" ry="36" fill="#cb9a73" />
  <ellipse cx="470" cy="224" rx="72" ry="19" fill="#7f5642" opacity="0.54" />
  <path d="M628 278c0-47 34-76 90-76s90 29 90 76v149c0 46-34 75-90 75s-90-29-90-75z" fill="url(#potA)" />
  <path d="M628 337c33 18 57 18 90 0s58-18 90 0" stroke="#d6ab84" stroke-width="8" opacity="0.5" />
  <circle cx="806" cy="124" r="88" fill="#ffd2a4" opacity="0.26" />
  <circle cx="112" cy="128" r="70" fill="#ffc997" opacity="0.18" />
</svg>
