<svg xmlns="http://www.w3.org/2000/svg" viewBox="0 0 960 640" role="img" aria-labelledby="title desc">
  <title id="title">Tide Pool Bowls</title>
  <desc id="desc">Cluster of patterned bowls inspired by tide pools.</desc>
  <defs>
    <linearGradient id="bg" x1="0" y1="0" x2="1" y2="1">
      <stop offset="0%" stop-color="#8b786c" />
      <stop offset="46%" stop-color="#b5a08f" />
      <stop offset="100%" stop-color="#d9d1c5" />
    </linearGradient>
    <linearGradient id="bowl" x1="0" y1="0" x2="0" y2="1">
      <stop offset="0%" stop-color="#ebddd1" />
      <stop offset="100%" stop-color="#b99f8c" />
    </linearGradient>
  </defs>
  <rect width="960" height="640" fill="url(#bg)" />
  <ellipse cx="480" cy="520" rx="340" ry="64" fill="#655a54" opacity="0.28" />
  <ellipse cx="300" cy="414" rx="180" ry="74" fill="url(#bowl)" />
  <ellipse cx="300" cy="414" rx="126" ry="44" fill="#c0a793" />
  <ellipse cx="300" cy="414" rx="96" ry="31" fill="#8a7467" opacity="0.45" />
  <ellipse cx="534" cy="450" rx="194" ry="78" fill="url(#bowl)" />
  <ellipse cx="534" cy="450" rx="136" ry="46" fill="#c6ad98" />
  <ellipse cx="534" cy="450" rx="102" ry="32" fill="#8e796d" opacity="0.45" />
  <ellipse cx="728" cy="380" rx="150" ry="62" fill="url(#bowl)" />
  <ellipse cx="728" cy="380" rx="105" ry="37" fill="#c6ad98" />
  <ellipse cx="728" cy="380" rx="79" ry="26" fill="#8e796d" opacity="0.45" />
  <path d="M214 414c24-16 50-16 76 0" stroke="#ebdfd6" stroke-width="6" stroke-linecap="round" opacity="0.7" />
  <path d="M438 450c24-16 50-16 76 0" stroke="#ebdfd6" stroke-width="6" stroke-linecap="round" opacity="0.7" />
  <path d="M668 380c20-14 42-14 62 0" stroke="#ebdfd6" stroke-width="6" stroke-linecap="round" opacity="0.7" />
  <circle cx="122" cy="114" r="76" fill="#f7efe8" opacity="0.24" />
</svg>
