<svg xmlns="http://www.w3.org/2000/svg" viewBox="0 0 1200 120" preserveAspectRatio="none" role="img" aria-label="Decorative wave divider">
  <defs>
    <linearGradient id="wv1" x1="0" y1="0" x2="1" y2="0">
      <stop offset="0%" stop-color="#5f8d92" stop-opacity="0.15"/>
      <stop offset="50%" stop-color="#ba7446" stop-opacity="0.12"/>
      <stop offset="100%" stop-color="#5f8d92" stop-opacity="0.15"/>
    </linearGradient>
    <linearGradient id="wv2" x1="0" y1="0" x2="1" y2="0">
      <stop offset="0%" stop-color="#275155" stop-opacity="0.08"/>
      <stop offset="50%" stop-color="#e8ba76" stop-opacity="0.1"/>
      <stop offset="100%" stop-color="#275155" stop-opacity="0.08"/>
    </linearGradient>
  </defs>
  <path d="M0 60 Q150 20 300 60 Q450 100 600 60 Q750 20 900 60 Q1050 100 1200 60 L1200 120 L0 120Z" fill="url(#wv1)"/>
  <path d="M0 75 Q200 40 400 75 Q600 110 800 75 Q1000 40 1200 75 L1200 120 L0 120Z" fill="url(#wv2)"/>
  <path d="M0 90 Q180 65 360 90 Q540 115 720 90 Q900 65 1080 90 Q1140 97 1200 90 L1200 120 L0 120Z" fill="#e8d7c3" opacity="0.2"/>
</svg>